<svg data-name="Layer 1" viewBox="0 0 512 512" xmlns="http://www.w3.org/2000/svg"><path d="m494.05 160.93-98-98a5.72 5.72 0 0 0-2.94-1.55l-46.78-9-.28-.06-35.49-6.81a5.7 5.7 0 0 0-5.36 1.89L256 105.64 206.81 47.4a5.65 5.65 0 0 0-5.36-1.89l-35.55 6.83h-.15l-46.87 9a5.72 5.72 0 0 0-2.94 1.55l-98 98a5.67 5.67 0 0 0 0 8l68.16 68.17a5.83 5.83 0 0 0 8 0l23.53-23.55V461a5.65 5.65 0 0 0 5.64 5.64h265.44a5.64 5.64 0 0 0 5.64-5.64V213.51l23.55 23.55a5.64 5.64 0 0 0 8 0l68.16-68.16a5.64 5.64 0 0 0 0-8ZM311.66 57.21 336.73 62l-33.48 66.54-38-16.35Zm-111.33 0 46.44 55-38 16.35L175.27 62ZM421.9 225.1l-29.19-29.19a5.64 5.64 0 0 0-9.64 4v30.42c-8.85-3.53-24.6-14.1-24.6-44.8a5.65 5.65 0 0 0-11.29 0c0 41.4-29.23 46.29-30.45 46.47a5.65 5.65 0 0 0 0 11.18c1.25.19 30.48 5.08 30.48 46.47a5.65 5.65 0 0 0 11.29 0c0-30.4 15.75-41.1 24.6-44.72v210.38H128.91V199.9a5.64 5.64 0 0 0-9.64-4L90.1 225.1l-60.18-60.19 92.78-92.78 41.05-7.89 37.32 74.14a5.63 5.63 0 0 0 7.27 2.64l47.66-20.5L303.66 141a5.65 5.65 0 0 0 7.27-2.65l37.31-74.14 41.05 7.89 92.79 92.78Zm-49 12.48a48.81 48.81 0 0 0-20.05 22.6 48.87 48.87 0 0 0-20.06-22.6A48.77 48.77 0 0 0 352.83 215a48.71 48.71 0 0 0 20.05 22.58Z" fill="#1e8bd4" class="fill-000000"></path><path d="M472.58 337.71c-1.05-.14-25.34-3.92-25.34-39a5.65 5.65 0 0 0-11.29 0c0 34.67-24.34 38.8-25.34 39a5.64 5.64 0 0 0 0 11.17c1 .16 25.36 4.29 25.36 39a5.65 5.65 0 0 0 11.29 0c0-34.67 24.34-38.8 25.34-38.95a5.64 5.64 0 0 0 0-11.18Zm-31 23A42.46 42.46 0 0 0 426 343.3a42.5 42.5 0 0 0 15.61-17.41 42.41 42.41 0 0 0 15.6 17.41 42.38 42.38 0 0 0-15.61 17.4ZM280.85 267.23a5.65 5.65 0 0 0-11.29 0c0 62.65-44.65 69.94-46.55 70.21a5.65 5.65 0 0 0 0 11.18c.47.05 46.53 7.18 46.53 70.19a5.65 5.65 0 0 0 11.29 0c0-62.64 44.67-69.92 46.56-70.2a5.64 5.64 0 0 0 0-11.17c-.46-.07-46.54-7.19-46.54-70.21Zm-5.65 115.63c-8-22.46-22.93-34-34.52-39.83 11.59-5.82 26.53-17.37 34.52-39.85 8 22.48 22.95 34 34.54 39.85-11.59 5.81-26.54 17.37-34.54 39.83Z" fill="#1e8bd4" class="fill-000000"></path></svg>